<svg xmlns="http://www.w3.org/2000/svg" x="0px" y="0px"
width="48" height="48"
viewBox="0 0 172 172"
style=" fill:#000000;"><g fill="none" fill-rule="nonzero" stroke="none" stroke-width="1" stroke-linecap="butt" stroke-linejoin="miter" stroke-miterlimit="10" stroke-dasharray="" stroke-dashoffset="0" font-family="none" font-weight="none" font-size="none" text-anchor="none" style="mix-blend-mode: normal"><path d="M0,172v-172h172v172z" fill="none"></path><g fill="#107b10"><path d="M86,6.88c-14.76104,0 -28.83214,4.13069 -40.50063,11.35469c-0.75336,0.25112 -2.05508,1.24189 -3.23844,2.29109c10.4748,-8.32136 34.69783,8.34592 41.77047,13.30984c1.19024,0.83592 2.75367,0.83592 3.94391,0c7.07264,-4.96392 31.29567,-21.63464 41.77047,-13.30984c-1.18336,-1.0492 -2.48852,-2.03997 -3.23844,-2.29109c-11.67192,-7.224 -25.74631,-11.35469 -40.50735,-11.35469zM37.84,27.52c-5.49368,0 -9.50703,4.47469 -9.50703,4.47469c-13.04448,14.104 -21.27828,33.02131 -21.27828,54.00531c0,43.688 35.35363,79.12 78.94531,79.12c22.9964,0 43.93531,-9.976 58.35235,-25.8c0,0 -1.71586,-10.32135 -12.35578,-25.45735c-11.89896,-17.94648 -36.00299,-40.54964 -43.71891,-47.48812c-1.31752,-1.18336 -3.2817,-1.17697 -4.5889,0.02015c-5.8136,5.32168 -20.81447,20.21688 -24.12031,24.08c-7.8948,8.256 -29.86291,34.39597 -31.23547,49.18797c0,0 -4.80804,-11.69331 5.83187,-38.52531c6.622,-16.11984 27.18885,-40.08428 37.16141,-50.53844c1.3244,-1.38632 1.29258,-3.57717 -0.1075,-4.89125c-3.3024,-3.09256 -11.00058,-8.51228 -17.93906,-12.685c-4.80224,-3.096 -10.29001,-5.15866 -15.43969,-5.50266zM133.09172,27.52c-2.24632,0 -16.84009,4.61933 -32.19625,18.22797c-1.45168,1.28656 -1.50973,3.53165 -0.16125,4.92485c5.56248,5.74824 20.77572,20.47117 29.89172,34.98453c11.32792,18.576 18.19018,33.36665 14.06906,53.66265c12.70048,-14.104 20.59969,-32.68 20.59969,-53.32c-0.344,-20.64 -8.24052,-39.55865 -21.285,-53.66266c-0.344,-0.344 -0.68741,-0.69069 -1.02797,-1.03469c-2.74512,-3.096 -6.80088,-3.78266 -9.89,-3.78266z"></path></g></g></svg>